<svg width="16" height="16" viewBox="0 0 16 16" fill="none" xmlns="http://www.w3.org/2000/svg">
<g id="Frame 14">
<rect width="16" height="16" fill="white"/>
<path id="Vector" d="M14 10.5C13.2495 10.5 13.1627 9.875 12.0045 9.875C10.8412 9.875 10.7502 10.5 10.0022 10.5C9.2604 10.5 9.15971 9.875 8 9.875C6.85245 9.875 6.73523 10.5 6.00446 10.5C5.2505 10.5 5.1687 9.875 4.00223 9.875C2.83579 9.875 2.7526 10.5 2 10.5V8.9375C2 8.41992 2.57589 8 3.28571 8H3.71429V5.1875H5.42857V8H7.14286V5.1875H8.85714V8H10.5714V5.1875H12.2857V8H12.7143C13.4241 8 14 8.41992 14 8.9375V10.5ZM14 13H2V11.125C3.16132 11.125 3.25269 10.5 4.00223 10.5C4.75092 10.5 4.83937 11.125 6.00446 11.125C7.15204 11.125 7.26921 10.5 8 10.5C8.75396 10.5 8.83574 11.125 10.0022 11.125C11.1636 11.125 11.2549 10.5 12.0045 10.5C12.7408 10.5 12.8416 11.125 14 11.125V13ZM4.57143 4.875C4.09598 4.875 3.71429 4.59668 3.71429 4.25C3.71429 3.64453 4.57143 3.80078 4.57143 3C4.89286 3 5.42857 3.57617 5.42857 4.09375C5.42857 4.61133 5.04688 4.875 4.57143 4.875ZM8 4.875C7.52455 4.875 7.14286 4.59668 7.14286 4.25C7.14286 3.64453 8 3.80078 8 3C8.32143 3 8.85714 3.57617 8.85714 4.09375C8.85714 4.61133 8.47545 4.875 8 4.875ZM11.4286 4.875C10.9531 4.875 10.5714 4.59668 10.5714 4.25C10.5714 3.64453 11.4286 3.80078 11.4286 3C11.75 3 12.2857 3.57617 12.2857 4.09375C12.2857 4.61133 11.904 4.875 11.4286 4.875Z" fill="#CE202F"/>
</g>
</svg>
