<?xml version="1.0" standalone="no"?>
<!DOCTYPE svg PUBLIC "-//W3C//DTD SVG 20010904//EN"
 "http://www.w3.org/TR/2001/REC-SVG-20010904/DTD/svg10.dtd">
<svg version="1.0" xmlns="http://www.w3.org/2000/svg"
 width="3651.000000pt" height="2055.000000pt" viewBox="0 0 3651.000000 2055.000000"
 preserveAspectRatio="xMidYMid meet">

<g transform="translate(0.000000,2055.000000) scale(0.100000,-0.100000)"
fill="#000000" stroke="none">
<path d="M23252 20145 c-56 -86 -102 -161 -102 -166 0 -11 6 -12 -85 7 -42 9
-79 14 -81 11 -3 -2 12 -8 33 -11 255 -46 755 -201 1103 -342 370 -149 657
-288 975 -474 143 -83 412 -256 550 -353 l50 -35 321 -4 322 -4 -67 54 c-383
315 -927 669 -1368 890 -442 222 -1021 445 -1422 547 -54 14 -105 27 -113 30
-10 4 -46 -43 -116 -150z"/>
<path d="M16801 20118 c-60 -90 -111 -167 -113 -172 -2 -5 65 -26 147 -48 212
-54 499 -146 714 -227 l184 -69 131 71 c72 39 173 90 225 114 51 24 92 46 90
48 -11 9 -326 141 -464 193 -242 91 -750 252 -796 252 -4 0 -57 -73 -118 -162z"/>
<path d="M22718 20043 c7 -3 16 -2 19 1 4 3 -2 6 -13 5 -11 0 -14 -3 -6 -6z"/>
<path d="M22778 20033 c6 -2 18 -2 25 0 6 3 1 5 -13 5 -14 0 -19 -2 -12 -5z"/>
<path d="M22828 20023 c6 -2 18 -2 25 0 6 3 1 5 -13 5 -14 0 -19 -2 -12 -5z"/>
<path d="M22888 20013 c6 -2 18 -2 25 0 6 3 1 5 -13 5 -14 0 -19 -2 -12 -5z"/>
<path d="M22938 20003 c6 -2 18 -2 25 0 6 3 1 5 -13 5 -14 0 -19 -2 -12 -5z"/>
<path d="M20980 19309 c-1014 -71 -1982 -376 -2879 -906 -40 -24 -76 -41 -79
-39 -2 3 7 11 22 17 14 7 26 16 26 20 0 10 -89 99 -278 279 -78 74 -175 172
-216 217 l-74 82 -134 -88 c-301 -198 -628 -460 -918 -734 -69 -65 -88 -88
-70 -84 142 34 702 122 870 137 63 5 131 12 150 15 128 18 339 27 707 31 l421
4 124 65 c583 304 1266 522 1930 616 489 69 1051 77 1553 23 533 -57 1222
-233 1678 -428 20 -9 37 -12 37 -7 0 5 -12 12 -27 16 -15 3 -22 9 -17 13 17
11 25 81 10 89 -19 11 -33 42 -41 90 -4 24 -11 45 -15 48 -5 3 -7 11 -5 18 2
7 6 25 10 40 5 26 9 28 33 22 58 -14 9 7 -158 68 -580 214 -1143 333 -1780
377 -167 11 -711 11 -880 -1z m2781 -437 c-7 -2 -18 1 -23 6 -8 8 -4 9 13 5
13 -4 18 -8 10 -11z"/>
<path d="M14780 19304 c-882 -30 -1722 -232 -2525 -605 l-179 -84 44 -11 c25
-7 119 -29 210 -49 91 -21 167 -39 169 -40 2 -2 -49 -81 -113 -175 -72 -106
-111 -172 -103 -175 6 -2 83 -22 169 -44 558 -145 1192 -403 1698 -691 l124
-71 151 69 c82 38 180 82 217 97 78 34 90 18 -108 138 -563 339 -1217 624
-1819 793 -55 15 -104 31 -108 34 -11 9 292 126 513 198 405 131 822 218 1285
267 204 22 771 31 990 16 386 -27 791 -90 1125 -175 21 -6 47 11 165 105 77
61 146 116 153 123 10 10 -13 20 -120 49 -396 109 -842 186 -1248 216 -153 11
-547 20 -690 15z"/>
<path d="M10903 18861 l-142 -96 217 -12 c119 -6 236 -13 260 -15 23 -2 42 -2
42 -2 0 1 -53 51 -118 112 l-117 110 -142 -97z"/>
<path d="M27742 18375 c-56 -86 -102 -161 -102 -166 0 -11 6 -12 -85 7 -42 9
-79 14 -81 11 -3 -2 12 -8 33 -11 255 -46 755 -201 1103 -342 270 -108 411
-173 632 -286 1102 -568 2053 -1414 2738 -2438 106 -159 278 -437 316 -512 13
-27 27 -48 29 -48 8 0 -59 129 -89 173 -31 45 -32 54 -6 87 11 14 20 29 20 33
0 11 88 136 115 164 12 12 32 42 44 66 l22 44 -31 54 c-47 79 -230 346 -328
479 -472 636 -1087 1235 -1735 1689 -290 203 -667 430 -944 569 -442 222
-1021 445 -1422 547 -54 14 -105 27 -113 30 -10 4 -46 -43 -116 -150z"/>
<path d="M27208 18273 c7 -3 16 -2 19 1 4 3 -2 6 -13 5 -11 0 -14 -3 -6 -6z"/>
<path d="M27268 18263 c6 -2 18 -2 25 0 6 3 1 5 -13 5 -14 0 -19 -2 -12 -5z"/>
<path d="M27318 18253 c6 -2 18 -2 25 0 6 3 1 5 -13 5 -14 0 -19 -2 -12 -5z"/>
<path d="M27378 18243 c6 -2 18 -2 25 0 6 3 1 5 -13 5 -14 0 -19 -2 -12 -5z"/>
<path d="M27428 18233 c6 -2 18 -2 25 0 6 3 1 5 -13 5 -14 0 -19 -2 -12 -5z"/>
<path d="M20523 17944 c-3 -10 -13 -25 -20 -33 -7 -9 -25 -29 -38 -45 -14 -16
-25 -33 -25 -37 0 -5 -8 -17 -17 -27 -10 -9 -29 -39 -42 -65 -13 -26 -27 -47
-30 -47 -4 0 -15 -17 -26 -37 -11 -21 -25 -42 -32 -46 -7 -4 -13 -15 -13 -23
0 -13 -8 -14 -42 -9 -24 4 -59 13 -78 20 -20 7 -60 15 -90 18 l-55 6 55 -13
c30 -7 62 -15 70 -18 8 -4 47 -13 85 -21 92 -20 372 -94 525 -140 938 -282
1887 -762 2680 -1358 370 -278 604 -483 946 -824 528 -528 952 -1070 1330
-1702 43 -72 80 -130 82 -128 4 4 -27 67 -37 75 -14 11 -31 64 -23 69 5 3 17
22 28 41 10 19 25 39 32 43 6 4 12 14 12 22 0 8 8 20 18 27 9 7 26 29 36 48
11 19 28 44 38 54 10 11 18 25 18 32 0 7 6 17 13 21 6 4 25 32 40 60 l28 53
-87 137 c-92 145 -124 192 -263 388 -553 779 -1297 1515 -2123 2103 l-127 90
102 45 c456 204 1056 374 1579 448 489 69 1051 77 1553 23 533 -57 1222 -233
1678 -428 20 -9 37 -12 37 -7 0 5 -12 12 -27 16 -15 3 -22 9 -17 13 17 11 25
81 10 89 -19 11 -33 42 -41 90 -4 24 -11 45 -15 48 -5 3 -7 11 -5 18 2 7 6 25
10 40 5 26 9 28 33 22 58 -14 9 7 -158 68 -495 183 -968 294 -1495 351 -446
49 -986 49 -1430 0 -709 -78 -1360 -261 -2027 -571 l-116 -54 -54 34 c-195
125 -749 427 -782 427 -5 0 -79 32 -165 71 -287 132 -545 235 -836 335 -190
65 -492 156 -590 179 -38 8 -78 18 -88 21 -11 3 -20 -1 -24 -12z m7728 -842
c-7 -2 -18 1 -23 6 -8 8 -4 9 13 5 13 -4 18 -8 10 -11z"/>
<path d="M19358 17723 c7 -3 16 -2 19 1 4 3 -2 6 -13 5 -11 0 -14 -3 -6 -6z"/>
<path d="M19448 17713 c6 -2 18 -2 25 0 6 3 1 5 -13 5 -14 0 -19 -2 -12 -5z"/>
<path d="M19628 17683 c7 -3 16 -2 19 1 4 3 -2 6 -13 5 -11 0 -14 -3 -6 -6z"/>
<path d="M19703 17673 c9 -2 25 -2 35 0 9 3 1 5 -18 5 -19 0 -27 -2 -17 -5z"/>
<path d="M19773 17663 c9 -2 23 -2 30 0 6 3 -1 5 -18 5 -16 0 -22 -2 -12 -5z"/>
<path d="M19838 17653 c7 -3 16 -2 19 1 4 3 -2 6 -13 5 -11 0 -14 -3 -6 -6z"/>
<path d="M19908 17633 c6 -2 18 -2 25 0 6 3 1 5 -13 5 -14 0 -19 -2 -12 -5z"/>
<path d="M19973 17623 c9 -2 23 -2 30 0 6 3 -1 5 -18 5 -16 0 -22 -2 -12 -5z"/>
<path d="M10370 17534 c-877 -30 -1721 -231 -2512 -599 -176 -82 -405 -202
-548 -287 l-75 -44 -298 293 -298 293 -107 -72 c-779 -521 -1471 -1216 -1987
-1998 -121 -183 -245 -384 -245 -398 0 -4 63 -70 141 -148 l141 -141 -38 -71
c-34 -63 -37 -73 -26 -97 10 -22 18 -26 45 -23 27 3 37 12 66 61 l35 58 115
-115 115 -115 -91 -188 c-144 -297 -243 -542 -336 -830 -93 -286 -205 -736
-188 -758 5 -5 11 -28 14 -49 4 -26 18 -51 41 -75 30 -31 35 -42 33 -74 -2
-22 2 -42 10 -48 7 -7 13 -17 13 -24 0 -6 9 -20 20 -30 16 -15 18 -27 14 -74
-5 -55 -4 -57 36 -96 22 -21 40 -46 41 -55 0 -8 11 55 24 141 91 608 270 1196
531 1738 l84 175 58 -55 c31 -31 501 -493 1045 -1028 685 -675 987 -980 988
-994 0 -15 32 -50 99 -107 54 -46 105 -87 113 -90 8 -3 144 -132 301 -287
l287 -283 -226 0 -225 0 0 -382 1 -383 772 -776 772 -776 1 421 c0 343 5 470
23 686 35 416 81 757 151 1101 17 80 30 157 30 171 0 14 31 151 70 304 38 154
70 286 70 294 0 8 -10 22 -22 30 -23 14 -22 15 16 20 l38 5 84 253 c79 239
216 598 290 761 19 40 34 79 34 87 0 13 46 114 145 317 31 66 53 123 49 127
-30 28 -309 126 -501 176 -302 77 -246 74 -1296 74 l-939 0 -69 61 -69 62 0
488 0 489 76 0 77 0 -4 -476 -4 -476 1020 2 c995 1 1023 0 1130 -20 177 -34
408 -97 551 -150 73 -28 136 -50 141 -50 4 0 28 37 52 83 173 324 477 783 786
1188 l35 46 -407 6 c-223 4 -681 7 -1017 7 l-612 0 -788 776 -788 777 84 49
c166 97 558 286 758 365 552 218 1060 342 1685 410 230 25 939 25 1175 0 347
-37 657 -92 970 -173 188 -48 554 -168 712 -232 53 -21 94 -34 92 -27 -3 6 0
31 5 56 9 38 7 47 -10 65 -10 11 -19 32 -19 47 0 14 -4 28 -10 32 -5 3 -7 12
-4 19 3 8 1 17 -5 21 -6 3 -9 22 -6 43 8 56 -13 73 -173 131 -496 180 -1113
309 -1672 350 -153 11 -547 20 -690 15z"/>
<path d="M17765 16789 c-188 -11 -564 -53 -755 -84 -963 -157 -1855 -482
-2727 -996 -46 -27 -83 -45 -83 -40 0 4 12 13 26 19 25 12 25 12 -90 127 -63
63 -117 115 -120 115 -10 0 -446 439 -446 449 0 6 14 17 30 26 17 9 30 18 30
21 0 20 -366 -227 -615 -415 -500 -377 -1033 -890 -1441 -1386 -288 -351 -679
-920 -813 -1182 -23 -47 -29 -73 -5 -31 l14 27 164 -163 165 -163 -47 -90
c-43 -85 -45 -93 -32 -117 25 -48 99 -44 120 6 5 13 20 40 33 62 l24 38 114
-111 c148 -143 157 -151 163 -140 2 5 4 6 3 2 -1 -5 -42 -88 -90 -186 -124
-250 -186 -393 -322 -742 -13 -33 -43 -121 -68 -195 -104 -311 -191 -632 -237
-875 -23 -121 -22 -114 -14 -169 7 -42 10 -47 65 -108 32 -35 36 -45 34 -84
-3 -37 2 -53 32 -97 33 -50 34 -55 30 -122 l-5 -69 44 -42 c32 -30 44 -49 44
-69 0 -62 17 -5 28 93 26 225 133 734 213 1005 121 413 280 826 452 1174 40
81 76 154 81 161 6 10 75 -53 247 -227 131 -133 243 -241 247 -241 8 0 80 -71
549 -542 207 -208 279 -278 287 -278 3 0 80 -74 170 -165 90 -91 168 -165 174
-165 6 0 17 8 24 18 18 23 68 67 68 59 0 -3 -18 -23 -39 -44 -59 -57 -159
-180 -206 -253 -83 -128 -143 -285 -184 -488 -27 -131 -38 -404 -22 -552 42
-393 280 -703 701 -915 239 -120 543 -213 1075 -330 537 -118 980 -249 1162
-344 153 -80 253 -185 288 -304 30 -102 14 -263 -37 -376 -27 -57 -164 -193
-242 -240 -89 -53 -220 -101 -351 -129 -228 -48 -533 -32 -755 40 -159 51
-295 133 -396 239 -138 146 -195 273 -210 472 l-7 87 -683 0 -684 0 0 -22 c1
-68 47 -350 71 -438 38 -138 68 -217 118 -313 259 -497 748 -829 1416 -962
510 -101 1042 -107 1574 -19 605 100 1022 331 1334 738 51 66 100 133 109 150
9 17 17 28 18 25 1 -15 -30 -77 -45 -89 -9 -7 -23 -29 -31 -49 -8 -19 -20 -39
-27 -43 -6 -4 -8 -10 -5 -14 4 -3 17 9 28 29 l21 35 295 -294 c162 -162 297
-294 300 -294 3 0 189 -182 412 -404 224 -222 512 -507 639 -632 360 -355 484
-478 535 -533 26 -27 59 -58 73 -67 14 -9 207 -198 429 -420 222 -222 406
-404 410 -404 3 0 195 -188 426 -418 231 -229 467 -462 524 -516 58 -55 103
-103 101 -107 -8 -12 -451 -229 -594 -289 -562 -239 -1175 -407 -1799 -496
-772 -109 -1552 -93 -2333 47 -659 118 -1264 315 -1889 616 -978 471 -1912
1233 -2595 2118 -124 161 -133 172 -111 127 9 -17 20 -32 24 -32 5 0 16 -16
25 -35 9 -19 21 -35 27 -35 5 0 10 -11 10 -25 0 -14 4 -25 10 -25 5 0 16 -10
24 -22 12 -19 13 -36 4 -103 -6 -44 -16 -83 -22 -88 -7 -5 1 -18 22 -37 22
-21 32 -39 32 -60 0 -16 -5 -30 -11 -30 -18 0 0 -52 22 -68 17 -12 19 -21 13
-57 -5 -37 -3 -45 14 -54 27 -14 34 -37 26 -87 l-6 -43 -65 67 c-53 55 -48 47
28 -43 118 -140 537 -559 694 -696 416 -362 895 -697 1347 -945 106 -59 419
-216 498 -252 902 -405 1786 -626 2727 -682 222 -13 706 -13 926 0 830 51
1684 243 2431 547 61 25 132 54 159 64 26 11 55 23 65 29 9 5 62 29 117 54 55
24 183 86 285 137 102 52 188 95 192 97 4 2 64 -53 134 -123 l126 -126 -33
-25 c-18 -13 -41 -26 -51 -30 -10 -3 -18 -9 -18 -14 0 -14 270 142 514 297
105 67 124 70 159 31 38 -45 19 -74 -102 -153 -144 -94 -266 -169 -353 -217
-43 -24 -78 -47 -78 -52 0 -5 6 -4 13 2 6 5 29 17 49 25 l37 16 58 -60 c32
-33 102 -104 156 -159 88 -87 97 -99 80 -109 -10 -6 -14 -11 -10 -11 21 0 388
233 587 373 422 297 744 569 1131 956 433 433 754 823 1067 1296 98 148 118
180 166 258 10 16 15 31 13 34 -3 3 -13 -9 -22 -27 -20 -38 0 -53 -204 153
-80 82 -159 161 -175 175 -15 15 -93 92 -173 172 -131 130 -147 143 -157 126
-6 -10 -19 -28 -28 -40 -10 -11 23 53 73 144 82 148 299 573 299 584 0 2 16
39 35 80 261 564 470 1279 574 1956 62 402 105 1068 84 1290 l-10 105 -2 -92
c-1 -62 -5 -95 -14 -100 -7 -4 -18 -20 -24 -35 -7 -16 -17 -28 -22 -28 -6 0
-8 -7 -5 -15 4 -8 2 -15 -4 -15 -6 0 -15 -13 -21 -30 -5 -16 -17 -30 -25 -30
-9 0 -16 -8 -16 -17 0 -10 -7 -27 -15 -37 -8 -11 -15 -28 -15 -39 0 -10 -4
-15 -10 -12 -5 3 -10 -3 -10 -14 0 -23 -15 -28 -23 -8 -3 6 -6 0 -6 -15 -1
-16 -5 -28 -10 -28 -5 0 -11 -9 -14 -19 -3 -14 -11 -18 -25 -14 -17 4 -21 0
-24 -29 -2 -18 -9 -34 -15 -34 -7 -1 -17 -2 -23 -3 -5 0 -13 -19 -16 -42 -8
-48 -21 -40 -27 16 -2 26 -4 16 -5 -30 -3 -113 -41 -430 -78 -655 -109 -664
-281 -1241 -546 -1830 -137 -303 -374 -746 -353 -658 6 25 -13 47 -243 278
-138 137 -254 250 -257 250 -3 0 -108 102 -232 226 -215 216 -226 225 -242
207 -9 -10 -20 -27 -24 -37 -4 -10 -10 -16 -13 -13 -4 3 4 23 16 44 35 59 78
176 95 255 19 93 20 348 1 438 -74 355 -334 644 -686 763 -106 36 -287 61
-380 52 -157 -13 -320 -62 -452 -135 -32 -17 -58 -29 -58 -26 0 3 14 13 32 22
35 18 58 38 58 50 0 4 -91 99 -202 210 -112 112 -226 227 -254 256 -28 29 -81
80 -118 113 -37 33 -249 241 -471 463 -222 221 -406 402 -410 402 -3 0 -152
146 -331 325 l-324 325 -1 -367 c-1 -203 -3 -361 -5 -353 -1 8 -5 246 -7 528
l-3 513 520 -2 521 -2 3 459 c1 252 0 469 -3 482 l-5 22 -515 0 -515 0 -2 773
-3 772 -717 3 -718 2 0 -780 0 -780 -44 0 c-25 0 -48 5 -52 11 -7 12 -8 46
-14 304 -3 138 -5 150 -7 68 -2 -57 -5 -103 -7 -103 -7 0 -256 254 -256 261 0
4 -9 11 -20 14 -11 3 -204 191 -429 416 -225 225 -412 409 -416 409 -3 0 -190
182 -413 404 -950 945 -1245 1236 -1252 1236 -4 0 -75 68 -156 151 -168 169
-221 222 -507 502 -111 109 -263 259 -338 333 -75 74 -141 134 -147 134 -6 0
-17 -6 -24 -14 -8 -7 -30 -21 -48 -31 -70 -35 47 46 135 94 22 12 67 38 100
57 102 61 413 218 565 287 1351 608 2870 784 4360 506 254 -47 603 -135 850
-214 182 -58 546 -190 565 -204 15 -12 108 -42 113 -37 2 3 -14 10 -37 17 -23
7 -41 16 -41 21 0 4 -8 8 -17 8 -11 0 -14 3 -7 8 6 4 14 29 16 56 5 42 3 51
-18 69 -16 13 -24 31 -24 51 0 42 -17 98 -32 108 -10 6 -10 8 0 8 7 0 12 15
12 41 l0 41 38 -6 37 -6 -40 15 c-22 8 -49 19 -60 24 -32 16 -147 59 -195 75
-25 8 -83 28 -130 44 -584 203 -1298 341 -1985 382 -197 11 -716 11 -920 -1z
m-3580 -1139 c-3 -5 -12 -10 -18 -10 -7 0 -6 4 3 10 19 12 23 12 15 0z m-2359
-3117 c-8 -15 -15 -25 -16 -21 0 12 23 58 27 54 3 -2 -2 -17 -11 -33z m-35
-60 c-12 -20 -14 -14 -5 12 4 9 9 14 11 11 3 -2 0 -13 -6 -23z m6696 -1199
c-3 -3 -12 -4 -19 -1 -8 3 -5 6 6 6 11 1 17 -2 13 -5z m-735 -586 l3 -383 428
-3 427 -2 0 -1529 c0 -959 4 -1575 10 -1655 27 -326 104 -524 279 -708 80 -86
158 -142 276 -201 219 -108 454 -156 871 -177 212 -11 705 1 855 19 40 6 77 7
81 5 4 -3 8 -41 8 -85 0 -95 4 -92 -145 -109 -305 -34 -878 -36 -1169 -5 -497
53 -810 213 -1000 510 -65 101 -99 187 -138 350 l-22 90 -3 1653 -4 1652 -429
0 -430 0 0 480 0 480 50 0 50 0 2 -382z m-4123 283 c-13 -11 -26 -17 -28 -15
-5 5 30 33 43 34 4 0 -2 -9 -15 -19z m-40 -34 c-2 -1 -13 -9 -24 -17 -19 -14
-19 -14 -6 3 7 9 18 17 24 17 6 0 8 -1 6 -3z m1981 -522 c314 -56 507 -171
599 -359 37 -74 80 -232 81 -293 l0 -23 620 0 620 0 5 -22 c14 -66 21 -158 11
-168 -11 -11 -1322 -15 -1350 -4 -11 4 -16 19 -16 53 0 61 -43 210 -83 286
-106 202 -349 316 -759 355 -95 9 -148 8 -285 -5 -228 -21 -331 -51 -434 -123
l-54 -38 0 -126 c0 -91 4 -130 14 -142 7 -9 21 -29 30 -46 28 -51 88 -108 171
-163 39 -25 152 -81 188 -92 13 -4 21 -9 18 -12 -7 -7 -106 29 -106 38 0 4
-11 9 -23 13 -30 7 -152 88 -195 129 -18 18 -50 59 -69 91 -35 57 -36 63 -43
185 -8 163 5 206 94 295 101 103 249 163 461 185 126 13 391 6 505 -14z m-590
-935 c0 -5 -2 -10 -4 -10 -3 0 -8 5 -11 10 -3 6 -1 10 4 10 6 0 11 -4 11 -10z
m105 -31 c14 -6 9 -7 -15 -3 -19 4 -44 11 -55 15 -14 6 -9 7 15 3 19 -4 44
-11 55 -15z m102 -35 c-3 -3 -12 -4 -19 -1 -8 3 -5 6 6 6 11 1 17 -2 13 -5z
m46 -11 c-7 -2 -19 -2 -25 0 -7 3 -2 5 12 5 14 0 19 -2 13 -5z m44 -9 c-3 -3
-12 -4 -19 -1 -8 3 -5 6 6 6 11 1 17 -2 13 -5z m160 -40 c-3 -3 -12 -4 -19 -1
-8 3 -5 6 6 6 11 1 17 -2 13 -5z m50 -10 c-3 -3 -12 -4 -19 -1 -8 3 -5 6 6 6
11 1 17 -2 13 -5z m180 -40 c-3 -3 -12 -4 -19 -1 -8 3 -5 6 6 6 11 1 17 -2 13
-5z m6389 -1519 c-11 -8 -25 -15 -30 -15 -6 1 0 7 14 15 32 19 40 18 16 0z
m-356 -472 c0 -5 -10 -35 -21 -68 -56 -170 -54 -429 7 -610 124 -372 445 -641
828 -694 363 -51 709 93 959 399 69 84 3 -48 -88 -175 -253 -356 -726 -513
-1140 -378 -291 95 -521 306 -637 584 -98 237 -103 528 -12 753 51 129 105
226 104 189z m-3993 -85 c-3 -8 -6 -5 -6 6 -1 11 2 17 5 13 3 -3 4 -12 1 -19z
m-94 -256 c-9 -23 -19 -42 -23 -42 -4 0 2 20 13 45 26 55 33 53 10 -3z m7198
-1865 c-10 -9 -11 -8 -5 6 3 10 9 15 12 12 3 -3 0 -11 -7 -18z m-77 -868 c15
-12 26 -30 26 -45 0 -24 -153 -221 -325 -420 -247 -282 -605 -644 -639 -644
-7 0 -25 9 -40 21 -53 41 -45 54 202 303 250 254 393 413 575 641 141 176 151
183 201 144z"/>
<path d="M32356 14527 c3 -10 9 -15 12 -12 3 3 0 11 -7 18 -10 9 -11 8 -5 -6z"/>
<path d="M26238 14194 c-3 -3 -4 -155 -1 -337 l6 -332 43 -76 c56 -100 209
-405 274 -549 378 -833 623 -1692 740 -2600 72 -560 96 -1187 64 -1696 l-7
-101 134 -6 c130 -7 550 5 677 19 l63 7 -3 -74 -3 -73 -35 -7 c-81 -17 -293
-30 -555 -35 l-280 -6 -7 -61 c-42 -392 -80 -661 -122 -874 l-23 -113 356
-352 c398 -396 995 -985 1144 -1130 l98 -95 -24 -16 c-12 -8 -79 -43 -148 -77
-643 -323 -1385 -535 -2098 -601 l-133 -13 -25 -45 c-72 -133 -153 -286 -153
-289 0 -4 106 4 330 24 799 73 1602 306 2336 677 l169 86 107 -107 106 -107
-34 -19 c-19 -11 -34 -23 -34 -27 0 -9 255 138 391 225 56 36 108 66 116 66
19 0 53 -37 53 -58 0 -10 -6 -25 -12 -34 -15 -19 -326 -215 -440 -277 -43 -24
-78 -45 -78 -48 0 -2 30 12 67 31 37 20 71 36 76 36 5 0 65 -55 134 -122 86
-86 123 -128 120 -140 -6 -21 -4 -20 124 58 845 512 1630 1267 2195 2110 131
196 150 226 137 222 -5 -2 -136 125 -292 281 l-284 284 -19 -24 c-25 -31 -24
-29 62 126 545 975 826 2065 819 3169 -1 157 -3 178 -10 116 -4 -41 -15 -91
-24 -110 -21 -45 -60 -111 -71 -119 -15 -10 -54 -88 -54 -106 0 -9 -6 -15 -12
-12 -8 2 -17 -10 -23 -27 -8 -24 -15 -30 -32 -28 -17 2 -22 -3 -25 -25 -2 -17
-9 -28 -18 -28 -8 0 -20 -16 -27 -35 l-11 -35 -4 40 c-4 38 -5 38 -6 -10 -3
-66 -57 -488 -83 -640 -92 -540 -275 -1112 -514 -1603 -88 -180 -231 -442
-241 -442 -3 0 1 12 9 26 13 25 10 29 -207 244 -585 580 -597 592 -612 573 -8
-10 -2 9 12 42 90 200 99 441 24 643 -90 242 -274 431 -504 517 -214 80 -454
77 -644 -10 -60 -28 -63 -28 -60 -17 2 7 -241 250 -857 857 -201 198 -492 485
-645 637 l-280 277 -3 -177 c-1 -111 -3 -60 -5 136 l-2 314 435 -4 435 -3 0
403 0 402 -417 1 c-230 1 -426 1 -435 0 -17 -2 -18 37 -20 651 l-3 653 -596 3
c-327 1 -598 0 -601 -4z m2981 -4158 c-15 -15 -138 -92 -133 -84 7 10 123 88
132 88 3 0 3 -2 1 -4z m-394 -473 c-4 -10 -13 -40 -20 -68 -75 -290 -2 -587
197 -800 175 -187 375 -275 626 -275 255 0 435 78 625 272 l107 110 -46 -78
c-71 -121 -96 -154 -170 -225 -117 -111 -241 -181 -388 -219 -429 -109 -881
136 -1024 557 -55 161 -58 384 -6 541 24 72 86 202 97 202 5 0 6 -8 2 -17z
m2557 -2570 c10 -9 18 -25 18 -36 0 -21 -134 -192 -299 -382 -136 -156 -478
-502 -502 -508 -23 -6 -69 28 -69 52 0 10 59 76 131 147 204 201 394 414 602
672 60 76 84 87 119 55z"/>
<path d="M25813 13361 c12 -22 23 -38 25 -36 5 5 -26 63 -37 69 -5 4 0 -12 12
-33z"/>
<path d="M10712 13355 c-17 -37 -14 -45 4 -12 9 16 14 31 11 33 -2 2 -9 -7
-15 -21z"/>
<path d="M4088 13283 c-48 -54 -250 -860 -275 -1093 -5 -53 -4 -59 16 -70 18
-9 27 -8 45 3 18 12 25 31 35 98 32 213 124 599 205 861 51 164 55 193 27 208
-27 14 -35 13 -53 -7z"/>
<path d="M25861 13285 c0 -5 6 -21 14 -35 8 -14 14 -20 14 -15 0 6 -6 21 -14
35 -8 14 -14 21 -14 15z"/>
<path d="M25920 13165 c0 -5 5 -17 10 -25 5 -8 10 -10 10 -5 0 6 -5 17 -10 25
-5 8 -10 11 -10 5z"/>
<path d="M10508 11733 c-8 -10 -18 -27 -20 -38 -3 -11 -22 -74 -42 -140 -102
-331 -171 -618 -240 -1001 -32 -174 -32 -180 -1 -200 23 -15 27 -15 50 0 14 9
26 29 29 48 3 18 11 62 16 98 44 267 141 671 226 946 75 240 81 269 65 288
-18 21 -64 20 -83 -1z"/>
<path d="M3742 11068 c-14 -14 -17 -294 -4 -315 5 -8 22 15 47 66 37 77 38 80
31 157 -4 43 -12 84 -18 91 -13 16 -40 17 -56 1z"/>
<path d="M10721 10574 c0 -11 3 -14 6 -6 3 7 2 16 -1 19 -3 4 -6 -2 -5 -13z"/>
<path d="M10982 9895 c0 -16 2 -22 5 -12 2 9 2 23 0 30 -3 6 -5 -1 -5 -18z"/>
<path d="M10971 9754 c0 -11 3 -14 6 -6 3 7 2 16 -1 19 -3 4 -6 -2 -5 -13z"/>
<path d="M10108 9099 c-16 -9 -18 -26 -17 -132 2 -161 15 -406 17 -314 2 65
35 166 55 167 4 0 7 -24 8 -52 1 -29 5 -64 10 -78 7 -21 8 -20 4 9 -3 18 -5
111 -5 207 0 144 -3 175 -16 188 -18 18 -32 20 -56 5z"/>
<path d="M10113 8505 c0 -44 2 -61 4 -37 2 23 2 59 0 80 -2 20 -4 1 -4 -43z"/>
<path d="M10202 8470 c0 -19 2 -27 5 -17 2 9 2 25 0 35 -3 9 -5 1 -5 -18z"/>
<path d="M10212 8330 c0 -14 2 -19 5 -12 2 6 2 18 0 25 -3 6 -5 1 -5 -13z"/>
<path d="M10151 8104 c0 -11 3 -14 6 -6 3 7 2 16 -1 19 -3 4 -6 -2 -5 -13z"/>
<path d="M5700 7373 c0 -9 10 -27 21 -40 22 -22 22 -24 6 -100 l-16 -78 24
-21 c21 -19 22 -26 15 -60 -8 -33 -6 -42 12 -61 16 -17 19 -30 15 -57 -4 -27
-1 -38 18 -56 19 -18 21 -26 14 -58 -7 -32 -5 -40 16 -63 14 -14 25 -29 25
-33 0 -17 207 -230 358 -370 1111 -1025 2484 -1616 3976 -1712 l109 -7 -45 84
c-25 46 -65 121 -89 167 -29 54 -51 84 -64 87 -11 2 -74 9 -140 15 -962 92
-1942 443 -2765 993 -515 343 -1012 798 -1393 1275 -49 61 -91 112 -93 112 -2
0 -4 -8 -4 -17z"/>
<path d="M32100 7290 c-6 -11 -8 -20 -6 -20 3 0 10 9 16 20 6 11 8 20 6 20 -3
0 -10 -9 -16 -20z"/>
<path d="M4512 6755 c-62 -90 -112 -167 -112 -171 0 -11 154 -214 265 -349
446 -545 983 -1040 1569 -1445 781 -541 1677 -939 2585 -1150 202 -47 390 -84
395 -79 23 24 233 345 230 351 -3 4 -15 8 -27 8 -12 0 -132 22 -267 50 -1249
253 -2389 817 -3352 1657 -172 150 -495 470 -651 647 -151 169 -316 373 -432
534 -44 61 -82 111 -85 111 -3 1 -56 -73 -118 -164z"/>
<path d="M17455 6699 c-4 -6 -5 -12 -2 -15 2 -3 7 2 10 11 7 17 1 20 -8 4z"/>
<path d="M29058 5114 c-38 -19 -68 -37 -68 -39 0 -3 32 11 70 30 39 19 70 37
70 40 0 7 3 8 -72 -31z"/>
<path d="M12290 4900 c6 -11 13 -20 16 -20 2 0 0 9 -6 20 -6 11 -13 20 -16 20
-2 0 0 -9 6 -20z"/>
<path d="M29578 4834 c-38 -20 -36 -28 2 -9 17 9 30 18 30 20 0 7 -1 6 -32
-11z"/>
<path d="M25632 4655 c-17 -37 -14 -45 4 -12 9 16 14 31 11 33 -2 2 -9 -7 -15
-21z"/>
<path d="M10976 4407 c3 -10 9 -15 12 -12 3 3 0 11 -7 18 -10 9 -11 8 -5 -6z"/>
<path d="M11010 4364 c0 -6 7 -19 16 -30 14 -18 14 -18 3 6 -14 31 -19 36 -19
24z"/>
<path d="M11057 4279 c10 -17 25 -38 33 -47 35 -39 50 -72 44 -97 -3 -14 -10
-25 -15 -25 -4 0 -16 -16 -25 -35 -9 -19 -19 -35 -23 -35 -3 0 -15 -17 -26
-37 -11 -21 -25 -42 -32 -46 -7 -4 -13 -13 -13 -20 0 -7 -11 -25 -25 -41 -14
-16 -25 -32 -25 -35 0 -3 -13 -21 -29 -40 -16 -19 -32 -43 -34 -52 -11 -43
432 -586 758 -929 900 -946 1981 -1680 3205 -2177 209 -85 521 -194 735 -258
50 -14 119 -35 155 -46 178 -54 534 -138 760 -179 126 -24 130 -24 130 -5 0 7
6 18 14 22 7 4 21 23 30 41 9 17 20 32 24 32 4 0 16 17 27 38 11 20 25 41 32
45 7 4 13 14 13 21 0 7 9 22 19 33 11 12 29 38 40 59 11 20 24 40 28 43 4 3
13 15 20 26 6 11 15 19 20 18 4 0 44 -4 88 -7 l80 -5 -80 14 c-465 80 -715
135 -1070 234 -240 66 -708 224 -822 276 -17 8 -34 15 -38 15 -4 0 -39 14 -78
31 -40 16 -99 42 -132 56 -106 45 -127 55 -280 126 -1339 627 -2517 1614
-3394 2845 -116 163 -155 210 -114 141z"/>
<path d="M12400 4185 c13 -14 26 -25 28 -25 3 0 -5 11 -18 25 -13 14 -26 25
-28 25 -3 0 5 -11 18 -25z"/>
<path d="M22070 2055 c-14 -8 -20 -14 -15 -14 6 0 21 6 35 14 14 8 21 14 15
14 -5 0 -21 -6 -35 -14z"/>
<path d="M22190 1955 c-14 -8 -20 -14 -15 -14 6 0 21 6 35 14 14 8 21 14 15
14 -5 0 -21 -6 -35 -14z"/>
<path d="M22110 1910 c-8 -5 -10 -10 -5 -10 6 0 17 5 25 10 8 5 11 10 5 10 -5
0 -17 -5 -25 -10z"/>
<path d="M17098 533 c12 -2 30 -2 40 0 9 3 -1 5 -23 4 -22 0 -30 -2 -17 -4z"/>
<path d="M17213 523 c9 -2 23 -2 30 0 6 3 -1 5 -18 5 -16 0 -22 -2 -12 -5z"/>
</g>
</svg>
