<svg width="15" height="9" viewBox="0 0 15 9" fill="none" xmlns="http://www.w3.org/2000/svg">
<path id="Vector" d="M3.86217 8.37968L4.00258 8.5H1C0.867392 8.5 0.740215 8.44732 0.646446 8.35355C0.552678 8.25978 0.5 8.13261 0.5 8V5.49877L0.674666 5.64843L3.86217 8.37968ZM0.674666 3.35157L0.5 3.50123V1C0.5 0.867392 0.552678 0.740215 0.646447 0.646447C0.740215 0.552678 0.867392 0.5 1 0.5H4.00258L3.86217 0.620319L0.674666 3.35157ZM11.1378 0.620319L10.9974 0.5H14C14.1326 0.5 14.2598 0.552678 14.3536 0.646446C14.4473 0.740215 14.5 0.867392 14.5 1V3.50123L14.3253 3.35157L11.1378 0.620319ZM14.3253 5.64843L14.5 5.49877V8C14.5 8.13261 14.4473 8.25978 14.3536 8.35355C14.2598 8.44732 14.1326 8.5 14 8.5H10.9974L11.1378 8.37968L14.3253 5.64843ZM9.16294 5.61114L9.57867 5.88893L9.16294 5.61114C8.94318 5.94004 8.63082 6.19638 8.26537 6.34776C7.89991 6.49913 7.49778 6.53874 7.10982 6.46157C6.72186 6.3844 6.36549 6.19392 6.08579 5.91421C5.80608 5.63451 5.6156 5.27814 5.53843 4.89018C5.46126 4.50222 5.50087 4.10009 5.65224 3.73463C5.80362 3.36918 6.05996 3.05682 6.38886 2.83706C6.71776 2.6173 7.10444 2.5 7.5 2.5C8.03043 2.5 8.53914 2.71071 8.91421 3.08579C9.28929 3.46086 9.5 3.96957 9.5 4.5C9.5 4.89556 9.3827 5.28224 9.16294 5.61114Z" stroke="#CC202E"/>
</svg>
