<svg width="512" height="512" viewBox="0 0 512 512" fill="none" xmlns="http://www.w3.org/2000/svg">
<path d="M219.602 247.668L174.73 250.429C173.963 246.594 172.314 243.142 169.783 240.074C167.251 236.929 163.915 234.436 159.773 232.595C155.707 230.678 150.837 229.719 145.161 229.719C137.567 229.719 131.162 231.33 125.946 234.551C120.73 237.696 118.122 241.915 118.122 247.207C118.122 251.426 119.81 254.993 123.185 257.908C126.56 260.822 132.351 263.162 140.558 264.926L172.544 271.369C189.726 274.898 202.536 280.574 210.973 288.398C219.411 296.222 223.629 306.5 223.629 319.233C223.629 330.815 220.216 340.979 213.389 349.723C206.639 358.467 197.358 365.294 185.545 370.203C173.81 375.036 160.271 377.452 144.93 377.452C121.536 377.452 102.896 372.581 89.0128 362.839C75.206 353.021 67.1136 339.675 64.7358 322.8L112.945 320.268C114.402 327.402 117.93 332.848 123.53 336.607C129.129 340.288 136.301 342.129 145.045 342.129C153.636 342.129 160.54 340.48 165.756 337.182C171.048 333.807 173.733 329.473 173.81 324.18C173.733 319.732 171.854 316.088 168.172 313.25C164.49 310.335 158.814 308.111 151.143 306.577L120.538 300.479C103.28 297.027 90.4318 291.044 81.9943 282.53C73.6335 274.016 69.4531 263.162 69.4531 249.969C69.4531 238.616 72.5213 228.837 78.6577 220.629C84.8707 212.422 93.5767 206.094 104.776 201.645C116.051 197.196 129.244 194.972 144.355 194.972C166.676 194.972 184.241 199.689 197.051 209.124C209.938 218.558 217.455 231.406 219.602 247.668ZM348.495 197.273V234.091H242.067V197.273H348.495ZM266.229 154.932H315.243V319.693C315.243 324.219 315.934 327.747 317.314 330.278C318.695 332.733 320.613 334.459 323.067 335.456C325.598 336.453 328.513 336.952 331.811 336.952C334.113 336.952 336.414 336.76 338.715 336.376C341.016 335.916 342.78 335.571 344.007 335.341L351.716 371.814C349.262 372.581 345.81 373.463 341.361 374.46C336.912 375.534 331.505 376.186 325.138 376.416C313.326 376.876 302.971 375.304 294.073 371.699C285.252 368.094 278.387 362.494 273.478 354.901C268.569 347.307 266.152 337.719 266.229 326.136V154.932ZM409.072 376.991C401.478 376.991 394.958 374.307 389.512 368.938C384.143 363.491 381.458 356.972 381.458 349.378C381.458 341.861 384.143 335.418 389.512 330.048C394.958 324.679 401.478 321.994 409.072 321.994C416.436 321.994 422.879 324.679 428.402 330.048C433.924 335.418 436.686 341.861 436.686 349.378C436.686 354.44 435.382 359.081 432.774 363.3C430.243 367.442 426.906 370.778 422.764 373.31C418.622 375.764 414.058 376.991 409.072 376.991Z" fill="white"/>
</svg>
